# xmcd
# 
# Track frame offsets:
#     150
#     2471
#     21221
#     35305
#     51837
#     64535
#     65265
#     79717
#     84511
#     99710
#     101828
#     117959
#     134158
#     158901
#     173473
# 
# Disc length: 2548
# 
# Revision: 1
# Processed by: cddbd v1.5.2PL0 Copyright (c) Steve Scherf et al.
# Submitted via: BonkEnc v1.0.15
# 
DISCID=b809f20f
DTITLE=Greg Zlap Julliver Ian Siegal - Greg Zlap Julliver Ian Siegal
DYEAR=2017
DGENRE=Blues
TTITLE0=Jam 1'44
TTITLE1=Angel Kiss
TTITLE2=Doghouse
TTITLE3=Forgetting
TTITLE4=Jam 8'32
TTITLE5=Last Day In Paradise (Cut)
TTITLE6=Last Day In Paradise
TTITLE7=A Little Bit (All The Time) (Cut)
TTITLE8=A Little Bit (All The Time)
TTITLE9=Mon Sang (Cut)
TTITLE10=Mon Sang
TTITLE11=Mes Ideaux
TTITLE12=When The S.H.I.T. Hit
TTITLE13=Save My Soul
TTITLE14=Jam 3'56
EXTD=
EXTT0=
EXTT1=
EXTT2=
EXTT3=
EXTT4=
EXTT5=
EXTT6=
EXTT7=
EXTT8=
EXTT9=
EXTT10=
EXTT11=
EXTT12=
EXTT13=
EXTT14=
PLAYORDER=
